<?xml version="1.0" standalone="no"?>
<!DOCTYPE svg PUBLIC "-//W3C//DTD SVG 20010904//EN"
 "http://www.w3.org/TR/2001/REC-SVG-20010904/DTD/svg10.dtd">
<svg version="1.0" xmlns="http://www.w3.org/2000/svg"
 width="30.000000pt" height="20.000000pt" viewBox="0 0 30.000000 20.000000"
 preserveAspectRatio="xMidYMid meet">

<g transform="translate(0.000000,20.000000) scale(0.100000,-0.100000)"
fill="#000000" stroke="none">
<path d="M0 100 l0 -100 150 0 150 0 0 100 0 100 -150 0 -150 0 0 -100z m110
40 c0 -17 7 -20 40 -20 33 0 40 3 40 20 0 11 2 20 5 20 8 0 95 -55 95 -60 0
-6 -84 -60 -94 -60 -3 0 -6 8 -6 18 0 13 -9 17 -40 17 -31 0 -40 -4 -40 -17 0
-10 -3 -18 -6 -18 -10 0 -94 54 -94 60 0 6 82 60 93 60 4 0 7 -9 7 -20z"/>
</g>
</svg>
